<svg width="28" height="34" viewBox="0 0 28 34" fill="none" xmlns="http://www.w3.org/2000/svg">
<path d="M27.3332 4.50016V6.16683C27.3332 6.62707 26.9601 7.00016 26.4998 7.00016H1.49984C1.0396 7.00016 0.666504 6.62707 0.666504 6.16683V4.50016C0.666504 4.03993 1.0396 3.66683 1.49984 3.66683H8.99984V2.00016C8.99984 1.07969 9.74603 0.333496 10.6665 0.333496H17.3332C18.2536 0.333496 18.9998 1.07969 18.9998 2.00016V3.66683H26.4998C26.9601 3.66683 27.3332 4.03993 27.3332 4.50016ZM3.78317 30.5668C3.90591 32.3161 5.36296 33.6711 7.1165 33.6668H20.9165C22.67 33.6711 24.1271 32.3161 24.2498 30.5668L25.6665 10.3335H2.33317L3.78317 30.5668Z" fill="#544B4B"/>
</svg>
